<?xml version="1.0" encoding="UTF-8"?>
<svg id="Layer_2" data-name="Layer 2" xmlns="http://www.w3.org/2000/svg" viewBox="0 0 163.52 163.52">
  <defs>
    <style>
      .cls-1 {
        fill: #fff;
      }

      .cls-2 {
        fill: #194841;
      }
    </style>
  </defs>
  <g id="Layer_2-2" data-name="Layer 2">
    <circle class="cls-2" cx="81.76" cy="81.76" r="81.76"/>
    <g id="Layer_2-2" data-name="Layer 2-2">
      <g id="Layer_1-2" data-name="Layer 1-2">
        <g>
          <path class="cls-1" d="m67.09,52.9c-1.7-1.01-2.61-2.48-2.6-4.49,0-.67.02-1.35,0-2.03-.1-2.94-1.83-3.4-4.11-2.84-1.34.33-2.34,1.37-3.23,2.38-.54.62-.3,1.52-.22,2.26.16,1.51,0,3.01-.09,4.5-.15,2.53-.04,5.07-.13,7.6-.04.96.6.38.88.27,1.96-.74,3.92-1.48,5.94-2.02.2-.05.38-.15.62.04-.15.92-1.13.95-1.68,1.41-1.63,1.35-3.54,2.25-5.65,2.63-.4.07-.29.31-.29.51,0,2.03-.18,4.05-.18,6.07-.01,3.05-.23,6.08-.28,9.13-.04,2.47-.13,2.49,2.34,2.45,7.44-.11,14.89-.14,22.33-.29,4.6-.09,9.21.06,13.8-.18,3.28-.16,6.56-.23,9.83-.1,3.05.13,6.08.12,9.12.12,3.2,0,6.4-.13,9.58-.56.45-.06.93,0,1.41.08-1.15.62-2.43.8-3.66,1.11-.1.02-.21,0-.3.02-.78.16-1.85.08-2.28.56-.5.56.44,1.38.55,2.15.16,1.14.36,2.26.53,3.39.41,2.53.23,5.03-.37,7.53-.26,1.1.15,2.2.22,3.31.1,1.49-.06,2.95-.31,4.37-.31,1.71-.04,3.38.12,5.02.17,1.57,0,3.16.41,4.72.21.83.56,1.65.53,2.71-1.65-.86-3.06-1.76-3.49-3.57-.92-3.9-.8-7.82-.08-11.74.39-2.1.48-4.2-.02-6.31-.27-1.16.04-2.28.21-3.41.31-1.93.1-3.84-.15-5.73-.06-.5-.15-1-.12-1.49.04-.6-.19-.81-.75-.72-5.87.87-11.78.6-17.68.59-.26,0-.53.03-.86.06.84,2.15,1.18,4.34,1.22,6.59.01.86-.31,1.38-1.11,1.55-2.36.51-3.46,2.29-4.4,4.26-.19.41-.36.9-.04,1.24.32.34.79.04,1.13-.14,1.49-.77,3.02-1.43,4.48-2.3,2.66-1.6,5.42-2.21,8.39-.4,2.87,1.75,5.08,4,5.81,7.29.43,1.95.37,4.01-.42,5.98-.83,2.06-2.64,2.97-4.34,4.06-1.79,1.14-3.9,1.5-5.81,2.31-1.25.52-2.28,1.26-3.02,2.42-.13.21-.24.37-.27.63-.15,1.17-.23,1.19-1.22.54-.7-.45-1.19-1.11-1.71-1.72-.67-.78-.2-2.29.75-3.27,1.21-1.26,2.73-1.94,4.32-2.5,2.3-.81,4.5-1.82,6.52-3.2,1.74-1.19,2.53-2.92,2.5-5.02,0-.71,0-1.42,0-2.13,0-1.49-.73-2.32-2.1-2.8-1.81-.63-3.5-.48-5.19.34-.86.42-1.74.71-2.56,1.36-1.1.88-2.59,1.29-3.95,1.82-.9.34-1.82.11-2.62-.39-2.02-1.27-3.24-3.12-3.67-5.47-.16-.92.15-1.76.69-2.47,1.11-1.44,2.43-2.61,4.24-3.15,1.96-.59,1.96-.62,1.79-2.58v-.1c-.14-1.96-1.19-2.94-3.14-2.95-2.42,0-4.84,0-7.47,0,1.74,1.54,1.89,3.41,2.15,5.39.35,2.67-.07,5.31.14,7.95.06.73.16,1.47.18,2.2.06,1.96-.11,3.9-.37,5.84-.15,1.11.12,2.21.17,3.32.09,2.09.03,4.18-.18,6.27-.1,1.05.26,1.88,1.41,2.09.62.12.62.53.59.98-.01.39.14.86-.37,1.05-.47.18-.75-.18-1.05-.44-2.38-2.05-3.65-4.69-3.41-7.79.24-3.07-.12-6.14.36-9.19.21-1.38.32-2.78.28-4.22-.3.84-.86,1.44-1.45,2.06-1.68,1.77-3.6,1.6-5.39.11-1.26-1.05-2.24-2.34-2.97-3.82-.57-1.16-.64-2.38-.33-3.57.61-2.34.42-4.58-.51-6.79-.08-.18-.15-.37-.25-.64.67.01,1.06.25,1.4.79.78,1.27,1.49,2.53,1.98,3.95.75,2.12.55,4.18.07,6.28-.33,1.41-.22,1.68,1.16,1.47,1.95-.3,3.71-.95,4.84-2.85,1.15-1.92,1.62-3.84,1.19-6.06-.24-1.24.06-2.55-.19-3.83-.11-.56-.3-.62-.77-.64-3.71-.08-7.4-.29-11.12-.34-4.76-.06-9.52-.24-14.28-.3-.84-.01-1.69.04-2.53.03-.43,0-.62.14-.61.59.01,1.11,0,2.23,0,3.36.48-.07.75-.23,1.07-.63.64-.81,1.44-1.48,2.36-2.01,2.34-1.33,4.69-1.26,7.13-.3,2.37.94,3.82,2.69,4.83,4.96.7,1.6,1.4,3.17,1.64,4.94.13.98,0,1.87-.21,2.79-.81,3.56-2.89,6.35-5.68,8.52-2.05,1.6-4.12,3.17-5.68,5.22-1.81,2.38-2.54,5.1-1.67,8.11.12.43.37.96-.13,1.3s-.89-.1-1.28-.34c-1.68-1-2.24-2.64-2.36-4.45-.14-2.24.3-4.26,1.58-6.26,1.33-2.07,2.94-3.79,4.82-5.26,1.81-1.41,3.51-2.93,5.16-4.53,1.98-1.93,2.89-4.36,3.43-6.95.35-1.67-.59-2.89-1.96-3.66-2.35-1.33-4.91-1.84-7.32-.37-2.4,1.46-4.53,3.3-4.75,6.5-.14,1.98-.89,3.84-1.49,5.72-.06.19-.13.4-.12.59.15,2.5-.03,5.01-.24,7.48-.23,2.72.07,5.46-.34,8.17-.14.95,0,1.94-.02,2.91-.07,3.05-.15,6.09-.22,9.13,0,.15.07.33-.16.43-.26-.29-.13-.64-.14-.94-.04-3.82-.04-7.65-.12-11.48-.07-3.89-.21-7.77-.32-11.66,0-.24.13-.58-.24-.69-.29-.09-.38.21-.56.34-1.33,1.01-2.88,1.46-4.5,1.84-1.67.38-3.02.04-4.28-1.07-.57-.51-1.2-.97-1.82-1.41-1.49-1.05-2.09-2.7-3.02-4.12-.62-.94-.62-2.07-.35-3.15.29-1.15.59-2.29.55-3.49-.03-.97.95-1.14,1.44-1.68.65-.71,1.49-1.24,2.37-1.68,1.81-.92,3.63-.57,5.02.92.65.7,1.22,1.44,1.73,2.24.47.75.7,1.53.59,2.4-.05.43.19,1.07-.58,1.04-.62-.02-.95-.48-1.01-1.06-.06-.57-.05-1.15-.04-1.73,0-.73-.34-1.03-1.05-1.07-1.09-.05-2.06.22-2.87.97-.81.75-1.76,1.34-2.46,2.2-.45.56-.74,1.19-.72,1.93.01.53-.05,1.06-.17,1.6-.29,1.32.04,2.53,1.01,3.51.26.26.54.58.93.54,2.45-.23,4.97-.32,6.83-2.25,1.27-1.31,1.75-3.09,2.3-4.76,1.29-3.92.46-7.98.61-11.97.06-1.55-.01-1.66-1.56-1.55-1.98.15-3.71-.46-5.15-1.71-.98-.85-1.63-2.05-2.24-3.21-.83-1.56-1.78-3.01-3.11-4.19-.81-.72-1.82-1.09-2.86-1.19-2.59-.26-5.11.22-7.59.97-2.1.64-4.37.81-6.37.23-2.39-.69-4.37-2.32-5.42-4.81-.85-2.01-.92-3.89-.26-6.05,1.49-4.91,6.14-6.39,9.86-5.81,3.15.48,6.03,1.84,9.09,2.64,2.35.62,4.68.9,7-.19,1.01-.48,1.86-1.11,2.46-2.04,1.26-1.96,2.58-3.88,4.18-5.58.1-.1.17-.25.28-.29,1.38-.48,1.09-1.65,1.11-2.68.04-1.89-.07-3.79.42-5.65.09-.34.21-.64.38-.93.64-1.04,1.8-1.04,2.4.04.6,1.06.7,2.24.66,3.44,0,.28-.16.65.19.81.34.16.56-.17.77-.37,1.21-1.17,2.53-1.95,4.32-1.86,1.35.07,2.44.91,2.69,2.24.23,1.24.11,2.49.21,3.73.11,1.27.58,2.39,1.79,3.06,1.22,1.39,3.39,1.57,5.32.62,1.79-.89,3.13-2.37,3.56-4.35.3-1.38.7-2.74.26-4.3-.53-1.87-.81-3.82-1.49-5.68-.69-1.91-1.3-3.94-.89-5.98.73-3.54,2.67-5.65,6.74-4.73,1.82.41,3.41,1.43,5.21,1.88,2.03.51,3.93.57,5.95-.43,1.42-.7,2.72-1.41,3.66-2.67,1.06-1.41,1.73-3,1.87-4.78.01,2.23-.85,4.14-2.31,5.76-2.58,2.86-6.56,3.71-10.3,2.27-1.58-.61-3.18-1.26-4.84-1.54-2.3-.39-3.97.29-4.91,2.64-.68,1.7-.67,3.47-.23,5.32.54,2.26,1.71,4.3,2.04,6.61.45,3.21.35,6.27-2.09,8.81-2.01,2.09-4.17,2.62-6.76,1.57-.12-.05-.26-.06-.4-.09h0Zm-20.76,10.92c1.96-.43,3.91-.89,5.87-1.28.55-.11.75-.31.75-.85-.03-3.59-.05-7.17-.07-10.76,0-.23.03-.53-.23-.62-.26-.1-.41.17-.58.33-1.36,1.29-2.48,2.76-3.44,4.36-.95,1.58-2.04,3.01-3.84,3.74-2.08.85-4.26.72-6.36.45-1.66-.21-3.24-1.03-4.86-1.57-2.81-.94-5.67-1.89-8.66-1.11-3.05.79-4.94,2.97-5.68,5.92-.75,3.01.87,6.45,3.37,8.09,1.98,1.29,4.12,1.59,6.4,1.18,2.01-.37,4.01-.84,6.03-1.16,2.03-.31,4.04-.22,5.91.81,1.97,1.08,3.11,2.92,3.98,4.79,1.59,3.38,3.57,4.82,7.36,4.82.86,0,1.08-.27,1.06-1.09-.11-5.14-.21-10.28-.23-15.42,0-.97-.39-1.11-1.16-.89-1.53.42-3.12.4-4.68.55-.31.03-.7.15-.93-.29h0Zm7.79-15.91c.86-.63,1.77-1.03,1.61-2.2-.09-.67-.25-1.32-.38-1.98-.05-.23-.15-.48-.42-.5-.31-.01-.34.28-.43.48-.53,1.31-.46,2.67-.37,4.2Zm1.61.71c0-.27.01-.54,0-.81-.02-.36-.24-.41-.46-.2-.62.59-1.43,1.07-1.19,2.16.12.56.14,1.14.23,1.7.04.26.1.59.41.62.35.03.53-.28.61-.58.21-.95.41-1.91.41-2.89Z"/>
          <g>
            <g>
              <path class="cls-1" d="m62.48,123.24h1.87c.63,0,1.11.17,1.43.51s.48.83.48,1.49v.8c0,.66-.16,1.16-.48,1.49-.31.34-.79.51-1.43.51h-.6v3.3h-1.27v-8.11h0Zm1.87,3.64c.21,0,.37-.06.47-.18s.15-.31.15-.59v-.96c0-.28-.05-.48-.15-.59s-.26-.18-.47-.18h-.6v2.49h.6Z"/>
              <path class="cls-1" d="m71.7,123.24h1.89c.66,0,1.14.15,1.44.45.3.31.45.78.45,1.41v.5c0,.84-.28,1.38-.83,1.6v.02c.31.1.53.28.65.57.12.29.19.67.19,1.15v1.43c0,.23,0,.42.02.56s.05.29.12.42h-1.3c-.04-.13-.08-.26-.1-.37-.01-.12-.02-.32-.02-.62v-1.49c0-.37-.06-.63-.18-.78-.12-.15-.33-.22-.62-.22h-.44v3.48h-1.27v-8.11h0Zm1.74,3.47c.26,0,.45-.07.57-.2.12-.13.19-.35.19-.66v-.62c0-.29-.05-.51-.15-.64s-.27-.2-.49-.2h-.58v2.31h.46Z"/>
            </g>
            <path class="cls-1" d="m81.43,130.94c-.33-.36-.5-.86-.5-1.51v-4.26c0-.65.17-1.15.5-1.51.33-.35.81-.53,1.44-.53s1.11.18,1.44.53c.33.36.5.86.5,1.51v4.26c0,.65-.17,1.15-.5,1.51-.33.36-.81.53-1.44.53s-1.11-.18-1.44-.53Zm2.09-1.43v-4.42c0-.53-.22-.8-.66-.8s-.66.26-.66.8v4.42c0,.53.22.8.66.8s.66-.26.66-.8Z"/>
            <g>
              <path class="cls-1" d="m90.04,131.35v-1.16c.12.03.26.04.42.04.26,0,.45-.07.56-.19.12-.12.18-.32.18-.59v-6.23h1.27v6.19c0,.67-.15,1.16-.45,1.48-.31.32-.77.49-1.4.49-.23,0-.43-.01-.59-.04h0Z"/>
              <path class="cls-1" d="m98.15,123.24h3.48v1.16h-2.2v2.15h1.75v1.16h-1.75v2.49h2.2v1.16h-3.48v-8.11Z"/>
              <path class="cls-1" d="m107.5,130.95c-.32-.34-.48-.83-.48-1.47v-4.36c0-.64.16-1.13.48-1.47s.78-.52,1.4-.52,1.08.18,1.4.52.48.83.48,1.47v.86h-1.21v-.94c0-.51-.21-.75-.64-.75s-.64.25-.64.75v4.53c0,.5.21.74.64.74s.64-.25.64-.74v-1.24h1.21v1.15c0,.63-.16,1.12-.48,1.47s-.78.52-1.4.52-1.08-.18-1.4-.52h0Z"/>
              <path class="cls-1" d="m117.28,124.4h-1.33v-1.16h3.94v1.16h-1.33v6.95h-1.27v-6.95h0Z"/>
            </g>
          </g>
          <g>
            <path class="cls-1" d="m60.64,67.57h1.27v3.3h1.37v-3.3h1.27v8.11h-1.27v-3.65h-1.37v3.65h-1.27v-8.11Z"/>
            <path class="cls-1" d="m70.25,67.57h3.48v1.16h-2.2v2.15h1.75v1.16h-1.75v2.49h2.2v1.16h-3.48v-8.11Z"/>
          </g>
        </g>
      </g>
    </g>
  </g>
</svg>