<?xml version="1.0" encoding="UTF-8"?>
<svg id="Layer_2" data-name="Layer 2" xmlns="http://www.w3.org/2000/svg" viewBox="0 0 180.87 149.15">
  <defs>
    <style>
      .cls-1 {
        letter-spacing: .07em;
      }

      .cls-1, .cls-2 {
        font-family: BebasNeueBold, 'Bebas Neue';
        font-size: 35.74px;
      }

      .cls-2 {
        letter-spacing: .07em;
      }
    </style>
  </defs>
  <g id="Layer_1-2" data-name="Layer 1">
    <g>
      <text class="cls-1" transform="translate(0 30.38)"><tspan x="0" y="0">The</tspan></text>
      <text class="cls-2" transform="translate(71.78 142.75)"><tspan x="0" y="0">project</tspan></text>
      <g>
        <path d="m39.06,50.71v14.11c1.74-1.03,3.23-1.93,4.73-2.78,4.16-2.36,7.04-2.12,10.81.87,5.96,4.74,7.53,13.34,3.69,20.61-.85,1.61-1.9,3.12-2.82,4.7-.68,1.17-1.36,1.41-2.44.38-1.41-1.34-2.93-2.56-4.13-3.6,1.95-3.69,3.85-7.08,5.54-10.58.52-1.07.63-2.4.66-3.61.1-3.62-2.51-5.69-5.77-4.13-3.38,1.62-6.44,3.9-9.53,6.06-.51.35-.63,1.52-.63,2.31-.05,6.08-.02,12.16-.03,18.24,0,.76-.08,1.52-.15,2.8-2.49-1.67-4.65-3.06-6.72-4.58-.33-.24-.32-1.06-.32-1.61-.03-3.64-.01-7.29-.01-11.28-1.43.97-2.61,1.74-3.75,2.56-8.78,6.32-19.54.24-21.73-9.23-1.95-8.46,5.22-13.35,11.47-13.79,5.12-.36,9.05,1.98,12.54,5.37.37.36.74.74,1.13,1.08.07.06.24,0,.57,0v-13.93c-.72-.03-1.42-.09-2.12-.09-8.37,0-16.74-.04-25.1.03-1.46.01-2.29-.44-2.85-1.76C1.54,47.56.82,46.34,0,44.73c1.04-.06,1.72-.12,2.4-.12,18.96,0,37.92,0,56.87,0,14.97,0,29.93,0,44.9,0,15.55,0,31.11,0,46.66,0,7.97,0,15.94.04,23.91-.04,1.65-.02,2.72.37,3.33,1.98.46,1.2,1.14,2.32,1.95,3.91h-9.68c0,7.93,0,15.49,0,23.06s0,15,0,23.08c-2.47-1.63-4.67-2.97-6.7-4.52-.44-.33-.4-1.44-.4-2.19.09-12.61.22-25.22.34-37.83,0-.38,0-.77,0-1.31h-16.12c0,3.62-.08,7.07.03,10.52.06,1.93-.73,2.52-2.55,2.49-4.9-.07-9.81-.03-14.71-.02-.65,0-1.31,0-1.96.07-3.05.38-4.44,1.95-4.09,4.57.4,3.01,2.71,4.82,5.56,4.37,3.74-.59,7.47-1.22,11.21-1.75.88-.12,1.84-.06,2.7.16,5.39,1.37,10.16,9.51,8.57,14.83-1.32,4.42-4.63,6.86-8.97,7.88-8.49,2-15.69-.76-22.06-6.27-3.6-3.12-6.29-6.96-8.53-11.14-1.48-2.76-1.43-2.9,1.53-3.88,2.14,3.02,4.05,6.16,6.41,8.93,4.81,5.65,11.07,7.84,18.42,6.91,4.49-.57,7.18-3.06,8.04-7.33.57-2.85-.98-4.68-3.88-4.31-2.91.37-5.84.79-8.66,1.57-8.87,2.44-16.46-8.19-16.11-14.15.2-3.35,2.71-5.78,6.57-6.02,4.43-.27,8.87-.27,13.31-.39.77-.02,1.54,0,2.44,0v-7.07h-38.57v45.47c-2.6-1.71-4.82-3.1-6.94-4.63-.32-.23-.26-1.1-.26-1.67.02-2.94.08-5.88.11-8.82,0-.63-.06-1.26-.11-2.17-.79.39-1.36.66-1.92.94-3.69,1.85-7.49,2.35-11.33.64-5.37-2.39-9.61-6.12-11.06-11.92-.8-3.21-.38-6.74-.45-10.13-.05-2.53-.01-5.06-.01-7.72h-31.15Zm38.04-.03c0,4.94-.02,9.63.01,14.32.01,1.89-.02,3.8.26,5.66.62,4.26,3.96,6.47,7.95,4.96,2.95-1.12,5.64-2.93,8.47-4.4,1.06-.55,1.4-1.35,1.38-2.53-.06-3.98-.02-7.97-.02-11.95,0-2,0-3.99,0-6.15-5.45,0-10.79,0-16.14,0-.58,0-1.15.06-1.9.09ZM11.88,72.68c-.02,4.46,3.01,7.03,7.29,5.84,4.81-1.34,8.57-4.57,12.39-7.62.23-.18.11-1.29-.2-1.58-2.55-2.42-5.45-4.23-9.01-4.76-5.48-.83-10.45,3.02-10.47,8.13Z"/>
        <path d="m138.05,98.66c1.69,1.69,3.43,3.44,4.99,5-1.66,1.89-3.32,3.78-4.91,5.59-1.97-1.96-3.7-3.7-5.38-5.38,1.7-1.67,3.45-3.4,5.3-5.22Z"/>
      </g>
    </g>
  </g>
</svg>